<svg width="40" height="40" viewBox="0 0 40 40" fill="none" xmlns="http://www.w3.org/2000/svg">
<path d="M15.25 12.4834C14.3166 12.4834 13.5833 13.2334 13.5833 14.1501C13.5833 15.0667 14.3333 15.8167 15.25 15.8167C16.1666 15.8167 16.9166 15.0667 16.9166 14.1501C16.9166 13.2334 16.1666 12.4834 15.25 12.4834Z" fill="#3C4048"/>
<path d="M35.7666 8.40016C34.3666 5.15016 31.2833 3.3335 26.9833 3.3335H13.0166C7.66665 3.3335 3.33331 7.66683 3.33331 13.0168V26.9835C3.33331 31.2835 5.14998 34.3668 8.39998 35.7668C8.71665 35.9002 9.08331 35.8168 9.31665 35.5835L35.5833 9.31683C35.8333 9.06683 35.9166 8.70016 35.7666 8.40016ZM17.55 20.4002C16.9 21.0335 16.05 21.3335 15.2 21.3335C14.35 21.3335 13.5 21.0168 12.85 20.4002C11.15 18.8002 9.28331 16.2502 9.99998 13.2168C10.6333 10.4668 13.0666 9.2335 15.2 9.2335C17.3333 9.2335 19.7666 10.4668 20.4 13.2335C21.1 16.2502 19.2333 18.8002 17.55 20.4002Z" fill="#3C4048"/>
<path d="M32.45 34.2169C32.8167 34.5835 32.7667 35.1835 32.3167 35.4335C30.85 36.2502 29.0667 36.6669 26.9834 36.6669H13.0167C12.5334 36.6669 12.3334 36.1002 12.6667 35.7669L22.7334 25.7002C23.0667 25.3669 23.5834 25.3669 23.9167 25.7002L32.45 34.2169Z" fill="#3C4048"/>
<path d="M36.6667 13.0168V26.9835C36.6667 29.0668 36.25 30.8668 35.4334 32.3168C35.1834 32.7668 34.5834 32.8001 34.2167 32.4502L25.6833 23.9168C25.35 23.5835 25.35 23.0668 25.6833 22.7335L35.75 12.6668C36.1 12.3335 36.6667 12.5335 36.6667 13.0168Z" fill="#3C4048"/>
</svg>
