<svg width="40" height="40" viewBox="0 0 40 40" fill="none" xmlns="http://www.w3.org/2000/svg">
<path d="M35.8833 18.1168L33.35 15.5835C32.9167 15.1501 32.5667 14.3001 32.5667 13.7001V10.1001C32.5667 8.63346 31.3667 7.43346 29.9 7.43346H26.3167C25.7167 7.43346 24.8667 7.08346 24.4333 6.65013L21.9 4.1168C20.8667 3.08346 19.1667 3.08346 18.1333 4.1168L15.5667 6.65013C15.15 7.08346 14.3 7.43346 13.6833 7.43346H10.1C8.63334 7.43346 7.43334 8.63346 7.43334 10.1001V13.6835C7.43334 14.2835 7.08334 15.1335 6.65001 15.5668L4.11667 18.1001C3.08334 19.1335 3.08334 20.8335 4.11667 21.8668L6.65001 24.4001C7.08334 24.8335 7.43334 25.6835 7.43334 26.2835V29.8668C7.43334 31.3335 8.63334 32.5335 10.1 32.5335H13.6833C14.2833 32.5335 15.1333 32.8835 15.5667 33.3168L18.1 35.8501C19.1333 36.8835 20.8333 36.8835 21.8667 35.8501L24.4 33.3168C24.8333 32.8835 25.6833 32.5335 26.2833 32.5335H29.8667C31.3333 32.5335 32.5333 31.3335 32.5333 29.8668V26.2835C32.5333 25.6835 32.8833 24.8335 33.3167 24.4001L35.85 21.8668C36.9333 20.8501 36.9333 19.1501 35.8833 18.1168ZM13.3333 15.0001C13.3333 14.0835 14.0833 13.3335 15 13.3335C15.9167 13.3335 16.6667 14.0835 16.6667 15.0001C16.6667 15.9168 15.9333 16.6668 15 16.6668C14.0833 16.6668 13.3333 15.9168 13.3333 15.0001ZM15.8833 25.8835C15.6333 26.1335 15.3167 26.2501 15 26.2501C14.6833 26.2501 14.3667 26.1335 14.1167 25.8835C13.6333 25.4001 13.6333 24.6001 14.1167 24.1168L24.1167 14.1168C24.6 13.6335 25.4 13.6335 25.8833 14.1168C26.3667 14.6001 26.3667 15.4001 25.8833 15.8835L15.8833 25.8835ZM25 26.6668C24.0667 26.6668 23.3167 25.9168 23.3167 25.0001C23.3167 24.0835 24.0667 23.3335 24.9833 23.3335C25.9 23.3335 26.65 24.0835 26.65 25.0001C26.65 25.9168 25.9167 26.6668 25 26.6668Z" fill="#3C4048"/>
</svg>
