<svg width="40" height="40" viewBox="0 0 40 40" fill="none" xmlns="http://www.w3.org/2000/svg">
<path d="M36.6667 12.5832C36.6667 13.6832 35.7667 14.5832 34.6667 14.5832H5.33337C4.23337 14.5832 3.33337 13.6832 3.33337 12.5832V12.5665C3.33337 8.74984 6.41671 5.6665 10.2334 5.6665H29.75C33.5667 5.6665 36.6667 8.7665 36.6667 12.5832Z" fill="#3C4048"/>
<path d="M3.33337 19.0835V27.4335C3.33337 31.2502 6.41671 34.3335 10.2334 34.3335H29.75C33.5667 34.3335 36.6667 31.2335 36.6667 27.4168V19.0835C36.6667 17.9835 35.7667 17.0835 34.6667 17.0835H5.33337C4.23337 17.0835 3.33337 17.9835 3.33337 19.0835ZM13.3334 28.7502H10C9.31671 28.7502 8.75004 28.1835 8.75004 27.5002C8.75004 26.8168 9.31671 26.2502 10 26.2502H13.3334C14.0167 26.2502 14.5834 26.8168 14.5834 27.5002C14.5834 28.1835 14.0167 28.7502 13.3334 28.7502ZM24.1667 28.7502H17.5C16.8167 28.7502 16.25 28.1835 16.25 27.5002C16.25 26.8168 16.8167 26.2502 17.5 26.2502H24.1667C24.85 26.2502 25.4167 26.8168 25.4167 27.5002C25.4167 28.1835 24.85 28.7502 24.1667 28.7502Z" fill="#3C4048"/>
</svg>
