<svg width="40" height="40" viewBox="0 0 40 40" fill="none" xmlns="http://www.w3.org/2000/svg">
<path d="M29.3333 8.84997L19.9167 3.7833C18.9167 3.24997 17.7333 3.24997 16.7333 3.7833L7.33334 8.84997C6.65001 9.2333 6.21667 9.96663 6.21667 10.7666C6.21667 11.5833 6.63334 12.3166 7.33334 12.6833L16.75 17.75C17.25 18.0166 17.8 18.15 18.3333 18.15C18.8667 18.15 19.4333 18.0166 19.9167 17.75L29.3333 12.6833C30.0167 12.3166 30.45 11.5833 30.45 10.7666C30.45 9.96663 30.0167 9.2333 29.3333 8.84997Z" fill="#3C4048"/>
<path d="M15.2 19.5168L6.44998 15.1502C5.76665 14.8002 4.99998 14.8502 4.34998 15.2335C3.71665 15.6335 3.33331 16.3168 3.33331 17.0668V25.3335C3.33331 26.7668 4.13331 28.0501 5.41665 28.7001L14.1666 33.0668C14.4666 33.2168 14.8 33.3001 15.1333 33.3001C15.5166 33.3001 15.9166 33.1835 16.2666 32.9835C16.9 32.5835 17.2833 31.9002 17.2833 31.1502V22.8835C17.2666 21.4501 16.4666 20.1668 15.2 19.5168Z" fill="#3C4048"/>
<path d="M33.3333 17.0668V21.1668C32.5333 20.9335 31.6833 20.8335 30.8333 20.8335C28.5666 20.8335 26.35 21.6168 24.6 23.0168C22.2 24.9002 20.8333 27.7501 20.8333 30.8335C20.8333 31.6502 20.9333 32.4668 21.15 33.2502C20.9 33.2168 20.65 33.1168 20.4166 32.9668C19.7833 32.5835 19.4 31.9002 19.4 31.1502V22.8835C19.4 21.4501 20.2 20.1668 21.4666 19.5168L30.2166 15.1502C30.9 14.8002 31.6666 14.8502 32.3166 15.2335C32.95 15.6335 33.3333 16.3168 33.3333 17.0668Z" fill="#3C4048"/>
<path d="M36.6333 26.0835C35.2666 24.4002 33.1833 23.3335 30.8333 23.3335C29.0666 23.3335 27.4333 23.9502 26.15 24.9835C24.4166 26.3502 23.3333 28.4668 23.3333 30.8335C23.3333 33.1835 24.4 35.2668 26.0833 36.6335C27.3666 37.7002 29.0333 38.3335 30.8333 38.3335C32.7333 38.3335 34.45 37.6168 35.7833 36.4668C37.3333 35.0835 38.3333 33.0835 38.3333 30.8335C38.3333 29.0335 37.7 27.3668 36.6333 26.0835ZM32.55 31.3002C32.55 31.7335 32.3166 32.1502 31.95 32.3668L29.6 33.7668C29.4 33.8835 29.1833 33.9502 28.95 33.9502C28.5333 33.9502 28.1166 33.7335 27.8833 33.3502C27.5333 32.7502 27.7166 31.9835 28.3166 31.6335L30.05 30.6002V28.5002C30.05 27.8168 30.6166 27.2502 31.3 27.2502C31.9833 27.2502 32.55 27.8168 32.55 28.5002V31.3002Z" fill="#3C4048"/>
</svg>
